# xmcd
#
# Track frame offsets:
#	150
#	17912
#	34517
#	53355
#	66960
#	79770
#	97917
#	107595
#	124242
#	140035
#	155347
#	168165
#	180007
#	192982
#	212760
#	231070
#	245032
#	256462
#
# Disc length: 3604
#
# Revision: 2
# Processed by: cddbd v1.5.1PL0 Copyright (c) Steve Scherf et al.
# Submitted via: audiograbber 1.82.02
# Normalized: r1:DSETVAR1
#
DISCID=e80e1212
DTITLE=Various Artist - Country Line Dancing
DYEAR=1997
DGENRE=Country
TTITLE0=Martin White - There You Go
TTITLE1=Watermelone Henry - Going Country
TTITLE2=Simon Richmond - EJ' s Bar
TTITLE3=Anton and The Buzz Band - Country Married Rock' n' Roll
TTITLE4=T J McCall - Country Music Hall Of Fame
TTITLE5=Bobby Lee - This Don' t Feel Like Dancin'
TTITLE6=Hollywood Hillbillies - No Honky Tonks In Heaven
TTITLE7=Shot To  Pieces - Too Easy
TTITLE8=Capricorn - Line Dancin'  Days
TTITLE9=Simon Richmond - Good Times Come Around
TTITLE10=Northern Lights - Situation Vacant
TTITLE11=Chris Sayer - Love Kept Its Hold On My Heart
TTITLE12=Quinton Horton - I Learnt A Thing Or Two
TTITLE13=Shot To Pieces - Ain' t  Live Wonderful
TTITLE14=David Christie - Saddle Up Country Style
TTITLE15=Watermelon Henry - Louisianna
TTITLE16=Simon Richmond - Daddy' s Got His Blue Jeans On
TTITLE17=The Cheap Seats - Oregon Trail
EXTD=
EXTT0=
EXTT1=
EXTT2=
EXTT3=
EXTT4=
EXTT5=
EXTT6=
EXTT7=
EXTT8=
EXTT9=
EXTT10=
EXTT11=
EXTT12=
EXTT13=
EXTT14=
EXTT15=
EXTT16=
EXTT17=
PLAYORDER=
